<mxfile host="app.diagrams.net" modified="2023-06-12T16:26:12.683Z" agent="Mozilla/5.0 (Windows NT 10.0; Win64; x64; rv:109.0) Gecko/20100101 Firefox/114.0" etag="NCc5D9tUyp8TLlNjmdYs" version="21.3.2" type="device">
  <diagram name="Seite-1" id="uukCMZsNi52-b3Le0xTW">
    <mxGraphModel dx="2954" dy="1078" grid="1" gridSize="10" guides="1" tooltips="1" connect="1" arrows="1" fold="1" page="1" pageScale="1" pageWidth="827" pageHeight="1169" math="0" shadow="0">
      <root>
        <mxCell id="0" />
        <mxCell id="1" parent="0" />
        <mxCell id="zNEgu30txlpyItWICn7m-26" value="&lt;div&gt;&lt;b&gt;&lt;br&gt;&lt;/b&gt;&lt;/div&gt;&lt;div&gt;&lt;b&gt;PokemonApp&lt;/b&gt;&lt;/div&gt;&lt;div&gt;&lt;b&gt;&lt;br&gt;&lt;/b&gt;&lt;/div&gt;&lt;div&gt;erlaubt die Abfrage und Zwischenspeicherung von Pokemon-Daten&lt;br&gt;&lt;/div&gt;&lt;div&gt;&lt;br&gt;&lt;/div&gt;" style="rounded=0;whiteSpace=wrap;html=1;fillColor=#fff2cc;strokeColor=#d6b656;labelPosition=center;verticalLabelPosition=middle;align=center;verticalAlign=middle;fontSize=14;fontStyle=0" parent="1" vertex="1">
          <mxGeometry x="240" y="320" width="200" height="100" as="geometry" />
        </mxCell>
        <mxCell id="v6YOQeAQ7SYA2Z-97__9-3" value="&lt;div style=&quot;font-size: 14px;&quot;&gt;gibt Pokemon-&lt;/div&gt;&lt;div style=&quot;font-size: 14px;&quot;&gt;Nummer ein&lt;/div&gt;" style="edgeStyle=orthogonalEdgeStyle;rounded=0;orthogonalLoop=1;jettySize=auto;html=1;exitX=0.5;exitY=0.5;exitDx=0;exitDy=0;exitPerimeter=0;entryX=0;entryY=0.5;entryDx=0;entryDy=0;fontSize=14;dashed=1;" edge="1" parent="1" source="zNEgu30txlpyItWICn7m-2" target="zNEgu30txlpyItWICn7m-26">
          <mxGeometry relative="1" as="geometry" />
        </mxCell>
        <mxCell id="zNEgu30txlpyItWICn7m-2" value="Benutzer" style="shape=umlActor;verticalLabelPosition=bottom;verticalAlign=top;html=1;outlineConnect=0;fontSize=14;fontStyle=1" parent="1" vertex="1">
          <mxGeometry x="40" y="340" width="30" height="60" as="geometry" />
        </mxCell>
        <mxCell id="zNEgu30txlpyItWICn7m-25" value="&lt;div&gt;&lt;b&gt;Externe REST-API&lt;/b&gt;&lt;/div&gt;&lt;div&gt;&lt;br&gt;&lt;/div&gt;&lt;div&gt;&quot;PokeAPI&quot; stellt Pokemon-Daten zur VerfÃ¼gung&lt;br&gt;&lt;/div&gt;" style="rounded=0;whiteSpace=wrap;html=1;labelPosition=center;verticalLabelPosition=middle;align=center;verticalAlign=top;fillColor=#f5f5f5;strokeColor=#666666;fontSize=14;fontStyle=0;horizontal=1;fontColor=#333333;" parent="1" vertex="1">
          <mxGeometry x="580" y="320" width="200" height="100" as="geometry" />
        </mxCell>
        <mxCell id="v6YOQeAQ7SYA2Z-97__9-7" style="edgeStyle=orthogonalEdgeStyle;rounded=0;orthogonalLoop=1;jettySize=auto;html=1;entryX=1;entryY=0.5;entryDx=0;entryDy=0;endArrow=none;endFill=0;" edge="1" parent="1" source="v6YOQeAQ7SYA2Z-97__9-6" target="zNEgu30txlpyItWICn7m-26">
          <mxGeometry relative="1" as="geometry" />
        </mxCell>
        <mxCell id="v6YOQeAQ7SYA2Z-97__9-8" style="edgeStyle=orthogonalEdgeStyle;rounded=0;orthogonalLoop=1;jettySize=auto;html=1;entryX=0;entryY=0.5;entryDx=0;entryDy=0;endArrow=none;endFill=0;" edge="1" parent="1" source="v6YOQeAQ7SYA2Z-97__9-6" target="zNEgu30txlpyItWICn7m-25">
          <mxGeometry relative="1" as="geometry" />
        </mxCell>
        <mxCell id="v6YOQeAQ7SYA2Z-97__9-6" value="REST-API" style="shape=providedRequiredInterface;html=1;verticalLabelPosition=bottom;sketch=0;direction=west;fontSize=13;" vertex="1" parent="1">
          <mxGeometry x="500" y="360" width="20" height="20" as="geometry" />
        </mxCell>
      </root>
    </mxGraphModel>
  </diagram>
</mxfile>
